<svg width="320" height="80" viewBox="0 0 320 80" fill="none" xmlns="http://www.w3.org/2000/svg">
<path d="M126.4 15.568H88.24L91.008 8H129.12L126.4 15.568ZM125.04 19.328H86.88L84.128 26.88H122.24L125.04 19.328ZM120.912 30.608H82.768L80 38.16H118.08L120.912 30.608Z" fill="#009FDF"/>
<path d="M217.168 57.04H224C224.976 57.1629 225.968 57.04 226.885 56.6822C227.8 56.3246 228.613 55.7436 229.248 54.992C230.202 53.7614 230.674 52.2256 230.576 50.672C230.634 49.6827 230.448 48.6942 230.035 47.7933C229.622 46.8923 228.995 46.1064 228.208 45.504C226.93 44.6712 225.41 44.2883 223.888 44.416H217.088V57.024L217.168 57.04ZM208.16 64.64V19.328H237.648L235.04 26.928H217.168V36.96H224.448C230.336 36.96 233.376 38.368 235.488 40.16C236.997 41.5024 238.182 43.1677 238.958 45.032C239.734 46.8965 240.08 48.9118 239.968 50.928C240.078 53.0902 239.65 55.2459 238.718 57.2011C237.789 59.1561 236.387 60.8493 234.64 62.128C231.792 64.096 228.832 64.656 222.8 64.656L208.16 64.64ZM182.032 64.64V26.928H168.912V19.328H205.312L202.704 26.928H191.104V64.688H182.016L182.032 64.64ZM145.712 37.44H150.88C151.953 37.5294 153.033 37.4485 154.08 37.2C155.153 36.8534 156.077 36.1542 156.701 35.2158C157.326 34.2774 157.614 33.1553 157.52 32.032C157.667 30.9158 157.397 29.7848 156.763 28.8549C156.128 27.9251 155.173 27.2619 154.08 26.992C152.954 26.7253 151.796 26.6176 150.64 26.672H145.84V37.44H145.712ZM145.712 45.28V57.168H152C153.711 57.3549 155.429 56.8797 156.8 55.84C157.444 55.2568 157.952 54.5384 158.287 53.7363C158.621 52.9342 158.775 52.0681 158.736 51.2C158.77 49.808 158.348 48.4429 157.536 47.312C156.208 45.584 154.528 45.264 151.728 45.264H145.728L145.712 45.28ZM160.24 40.48V40.64C161.784 41.2665 163.219 42.1304 164.496 43.2C165.792 44.2721 166.814 45.6357 167.482 47.179C168.149 48.7224 168.442 50.4019 168.336 52.08C168.336 58.288 165.056 62.768 159.648 64.08C157.488 64.6137 155.262 64.8293 153.04 64.72H136.72V19.328H151.248C153.559 19.2413 155.872 19.4563 158.128 19.968C163.376 21.376 166.816 25.008 166.816 30.736C166.861 32.0939 166.627 33.4467 166.133 34.7121C165.637 35.9774 164.89 37.1286 163.936 38.096C162.92 39.1276 161.707 39.944 160.368 40.496H160.24V40.48Z" fill="#0A2973"/>
</svg>
