<svg width="320" height="80" viewBox="0 0 320 80" fill="none" xmlns="http://www.w3.org/2000/svg">
<path d="M144.8 31.2008L150.88 26.7208H130.72V53.2808H150.88V48.8008H136.48V42.0808H148.64V37.6008H136.48V31.2008H144.8ZM119.68 31.2008L125.76 26.7208H102.72V53.2808H114.72C121.44 53.2808 125.28 50.2408 125.28 44.9608C125.28 39.8408 121.76 37.1208 115.36 37.1208H108.32V31.2008H119.68ZM114.56 41.4408C118.24 41.4408 119.84 42.7208 119.84 45.1208C119.84 47.5208 118.08 48.8008 114.56 48.8008H108.48V41.4408H114.56ZM167.04 26.7208H156.16V53.2808H161.92V45.7608H167.2C174.24 45.7608 178.56 42.0808 178.56 36.1608C178.56 30.2408 174.08 26.7208 167.04 26.7208ZM167.04 41.2808H161.92V31.0408H167.04C170.72 31.0408 172.8 32.8008 172.8 36.1608C172.64 39.5208 170.72 41.2808 167.04 41.2808ZM92.9601 47.5208C91.3601 48.3208 89.7601 48.8008 88.0001 48.8008C82.8801 48.8008 79.0401 45.1208 79.0401 40.0008C79.0401 34.8808 82.7201 31.2008 88.0001 31.2008C89.9201 31.2008 91.6801 31.8408 93.2801 32.8008L97.4401 29.7608L97.1201 29.4408C94.7201 27.3608 91.5201 26.2408 87.8401 26.2408C83.8401 26.2408 80.3201 27.5208 77.6001 30.0808C75.0401 32.6408 73.4401 36.1608 73.6001 39.8408C73.6001 43.5208 75.0401 47.0408 77.6001 49.7608C80.3201 52.3208 84.0001 53.7608 87.6801 53.6008C91.8401 53.6008 95.3601 52.1608 97.9201 49.6008L94.2401 46.8808L92.9601 47.5208ZM265.6 37.6008H253.28V26.7208H247.52V53.2808H253.28V42.4008H265.6V53.2808H271.36V26.7208H265.6V37.6008ZM226.72 26.7208L215.2 53.2808H220.96L223.2 48.0008H235.36L237.6 53.2808H243.68L232.48 26.7208H226.72ZM225.12 43.5208L229.6 32.8008L233.76 43.5208H225.12ZM292.16 39.5208L302.56 26.7208H296L287.36 38.0808H284.16V26.7208H278.4V53.2808H284.16V42.5608H287.84L296.64 53.2808H304L292.16 39.5208ZM203.2 37.1208H196.16V31.2008H211.2V26.7208H190.4V53.2808H202.4C209.12 53.2808 212.96 50.2408 212.96 44.9608C213.12 39.8408 209.6 37.1208 203.2 37.1208ZM202.24 48.9608H196.16V41.6008H202.24C205.92 41.6008 207.52 42.8808 207.52 45.2808C207.68 47.6808 205.76 48.9608 202.24 48.9608Z" fill="#21A038"/>
<path d="M55.1696 26.2102C56.2083 27.5712 57.0877 29.0498 57.7898 30.6164L37.8716 45.4968L29.5472 40.2084V33.8462L37.8716 39.1346L55.1696 26.2102Z" fill="#21A038"/>
<path d="M21.0517 39.7592C21.0517 39.4737 21.0585 39.1901 21.0723 38.9081L16.0275 38.6576C16.0103 39.023 16 39.392 16 39.7643C15.9979 42.6737 16.5625 45.5548 17.6616 48.2423C18.7607 50.93 20.3725 53.3713 22.4047 55.4261L25.9831 51.8013C24.4188 50.2223 23.1779 48.3456 22.3316 46.279C21.4852 44.2124 21.0503 41.9966 21.0517 39.7592Z" fill="url(#paint0_linear_1_66)"/>
<path d="M37.8671 22.7189C38.1486 22.7189 38.4284 22.7294 38.7066 22.7433L38.9591 17.6288C38.5974 17.6114 38.2333 17.6027 37.8671 17.6027C34.995 17.5992 32.1506 18.1706 29.4972 19.2842C26.8437 20.3978 24.4334 22.0317 22.4047 24.0919L25.9831 27.7185C27.5411 26.1326 29.3931 24.8745 31.4326 24.0165C33.4721 23.1585 35.6588 22.7175 37.8671 22.7189Z" fill="url(#paint1_linear_1_66)"/>
<path d="M37.8672 56.8013C37.5856 56.8013 37.3057 56.8013 37.0259 56.7787L36.7734 61.8914C37.1363 61.9099 37.5009 61.9193 37.8672 61.9193C40.7381 61.9223 43.581 61.3505 46.2331 60.2365C48.8852 59.1226 51.2939 57.4885 53.3211 55.4283L49.7495 51.8035C48.1912 53.3886 46.3393 54.646 44.3003 55.5037C42.2612 56.3614 40.0749 56.8024 37.8672 56.8013Z" fill="url(#paint2_linear_1_66)"/>
<path d="M47.3456 25.6921L51.5971 22.5162C47.7112 19.3273 42.8606 17.5913 37.8604 17.6002V22.7181C41.2463 22.7138 44.5536 23.7509 47.3456 25.6921Z" fill="url(#paint3_linear_1_66)"/>
<path d="M59.7326 39.76C59.7353 38.4286 59.6204 37.0995 59.3891 35.7889L54.6827 39.3041C54.6827 39.4555 54.6827 39.6069 54.6827 39.76C54.6839 42.1411 54.1914 44.4959 53.2372 46.6717C52.2829 48.8475 50.8881 50.7958 49.1433 52.3903L52.538 56.1927C54.8064 54.1173 56.6191 51.5821 57.8584 48.7513C59.098 45.9203 59.7364 42.857 59.7326 39.76Z" fill="#21A038"/>
<path d="M37.8672 56.8021C35.5175 56.8029 33.1939 56.3036 31.0467 55.3366C28.8996 54.3696 26.9768 52.9562 25.4028 51.1882L21.6527 54.6269C23.7003 56.9261 26.2018 58.7634 28.9951 60.0199C31.7884 61.2762 34.8111 61.9236 37.8672 61.92V56.8021Z" fill="url(#paint4_linear_1_66)"/>
<path d="M26.591 27.1291L23.198 23.3268C20.929 25.4017 19.1157 27.9369 17.8757 30.7678C16.6357 33.5986 15.9966 36.6621 16 39.7594H21.0517C21.0506 37.3785 21.5432 35.0237 22.4974 32.8479C23.4517 30.6721 24.8463 28.7238 26.591 27.1291Z" fill="url(#paint5_linear_1_66)"/>
<defs>
<linearGradient id="paint0_linear_1_66" x1="23.4264" y1="54.7875" x2="17.7745" y2="38.666" gradientUnits="userSpaceOnUse">
<stop offset="0.14" stop-color="#F1E813"/>
<stop offset="0.3" stop-color="#E6E418"/>
<stop offset="0.58" stop-color="#C9DA26"/>
<stop offset="0.89" stop-color="#A2CC39"/>
</linearGradient>
<linearGradient id="paint1_linear_1_66" x1="23.847" y1="24.9968" x2="38.1104" y2="19.6334" gradientUnits="userSpaceOnUse">
<stop offset="0.06" stop-color="#0FA7DF"/>
<stop offset="0.54" stop-color="#0098F8"/>
<stop offset="0.92" stop-color="#0290EA"/>
</linearGradient>
<linearGradient id="paint2_linear_1_66" x1="36.4404" y1="58.8304" x2="52.5363" y2="55.2424" gradientUnits="userSpaceOnUse">
<stop offset="0.12" stop-color="#A2CC39"/>
<stop offset="0.28" stop-color="#86C239"/>
<stop offset="0.87" stop-color="#219F38"/>
</linearGradient>
<linearGradient id="paint3_linear_1_66" x1="36.8096" y1="19.3143" x2="50.5847" y2="23.5088" gradientUnits="userSpaceOnUse">
<stop offset="0.06" stop-color="#0290EA"/>
<stop offset="0.79" stop-color="#0C89CA"/>
</linearGradient>
<linearGradient id="paint4_linear_1_66" x1="22.9199" y1="54.0038" x2="37.9277" y2="59.5383" gradientUnits="userSpaceOnUse">
<stop offset="0.13" stop-color="#F1E813"/>
<stop offset="0.3" stop-color="#EAE616"/>
<stop offset="0.53" stop-color="#D8DF1F"/>
<stop offset="0.8" stop-color="#BAD52D"/>
<stop offset="0.98" stop-color="#A2CC39"/>
</linearGradient>
<linearGradient id="paint5_linear_1_66" x1="17.8819" y1="40.3789" x2="24.0279" y2="24.6034" gradientUnits="userSpaceOnUse">
<stop offset="0.07" stop-color="#A2CC39"/>
<stop offset="0.26" stop-color="#81C45E"/>
<stop offset="0.92" stop-color="#0FA7DF"/>
</linearGradient>
</defs>
</svg>
