<svg width="320" height="80" viewBox="0 0 320 80" fill="none" xmlns="http://www.w3.org/2000/svg">
<path d="M88.8126 33.6412C90.6474 33.6412 92.69 33.7049 94.4612 34.9017C95.642 35.6836 97.0302 37.2315 97.0302 39.992C97.0302 43.0238 95.1154 46.598 89.8018 46.598H85.3338V54.9116H81.4246V33.6412H88.8126ZM88.9721 43.4865C89.8337 43.4865 91.0783 43.5184 92.0676 42.5929C92.7538 41.9707 93.1209 40.9174 93.1209 40.024C93.1209 39.1942 92.7857 38.1889 92.0996 37.5985C91.4134 37.0081 90.3284 36.7208 89.1156 36.7208H85.3338V43.4865H88.9721ZM100.637 40.71C101.722 39.6888 103.333 38.7952 105.743 38.7952C108.168 38.7952 109.78 39.6888 110.865 40.71C112.477 42.2259 113.306 44.5875 113.306 46.9971C113.306 49.4065 112.477 51.7681 110.865 53.284C109.78 54.3052 108.168 55.2147 105.743 55.2147C103.333 55.2147 101.722 54.3052 100.637 53.284C99.025 51.7681 98.1953 49.4065 98.1953 46.9971C98.1793 44.5716 99.025 42.2259 100.637 40.71ZM103.27 51.4649C103.605 51.8638 104.386 52.6137 105.743 52.6137C107.115 52.6137 107.881 51.8798 108.216 51.4649C108.471 51.1937 109.397 49.9491 109.397 46.9971C109.397 44.0451 108.471 42.8163 108.216 42.5291C107.881 42.1302 107.099 41.3803 105.743 41.3803C104.386 41.3803 103.605 42.1142 103.27 42.5291C103.03 42.8163 102.089 44.0451 102.089 46.9971C102.089 49.9331 103.03 51.1777 103.27 51.4649ZM125.673 44.8907C125.609 44.0929 125.306 43.1515 124.891 42.5611C124.508 42.0025 123.774 41.3803 122.529 41.3803C121.316 41.3803 120.519 42.0025 120.024 42.8323C119.242 44.1088 119.194 46.0875 119.194 46.9971C119.194 48.4491 119.402 50.1884 120.024 51.1777C120.423 51.8 121.237 52.5979 122.529 52.5979C123.455 52.5979 124.237 52.2308 124.827 51.4171C125.29 50.7628 125.609 49.8372 125.657 49.0235L128.944 49.4225C128.752 50.8745 128.114 52.502 126.965 53.5393C126.008 54.4009 124.508 55.1828 122.402 55.1828C120.056 55.1828 118.524 54.2574 117.63 53.4116C116.418 52.2627 115.269 50.2203 115.269 46.9971C115.269 43.9971 116.29 42.194 117.104 41.2366C118.253 39.8643 120.199 38.7633 122.497 38.7633C124.46 38.7633 126.072 39.4494 127.077 40.5027C128.098 41.5238 128.72 43.0716 128.944 44.46L125.673 44.8907ZM141.055 44.8907C140.991 44.0929 140.688 43.1515 140.273 42.5611C139.906 42.0025 139.156 41.3803 137.912 41.3803C136.699 41.3803 135.901 42.0025 135.406 42.8323C134.641 44.1088 134.577 46.0875 134.577 46.9971C134.577 48.4491 134.8 50.1884 135.406 51.1777C135.805 51.8 136.619 52.5979 137.912 52.5979C138.837 52.5979 139.619 52.2308 140.209 51.4171C140.672 50.7628 140.991 49.8372 141.039 49.0235L144.326 49.4225C144.151 50.8745 143.497 52.502 142.348 53.5393C141.39 54.4009 139.906 55.1828 137.8 55.1828C135.438 55.1828 133.922 54.2574 133.029 53.4116C131.816 52.2627 130.667 50.2203 130.667 46.9971C130.667 43.9971 131.689 42.194 132.502 41.2366C133.651 39.8643 135.598 38.7633 137.896 38.7633C139.842 38.7633 141.454 39.4494 142.475 40.5027C143.497 41.5238 144.119 43.0716 144.342 44.46L141.055 44.8907ZM160.922 50.316C160.363 52.167 159.246 53.2521 158.32 53.9064C157.076 54.736 155.464 55.2147 153.757 55.2147C151.618 55.2147 149.448 54.3052 148.14 52.9808C146.927 51.7521 146.034 49.5979 146.034 47.0608C146.034 43.8376 147.374 41.6993 148.826 40.4867C149.672 39.7686 151.252 38.7793 153.629 38.7793C156.645 38.7793 158.56 40.1675 159.581 41.6036C160.666 43.0876 161.176 45.162 161.176 46.9651V47.6832H149.959C149.959 47.8587 149.927 49.2948 150.486 50.4436C151.315 52.183 152.847 52.6137 153.9 52.6137C154.73 52.6137 155.783 52.3585 156.661 51.4649C157.187 50.9064 157.411 50.3798 157.491 49.8852L160.922 50.316ZM157.267 45.3216C157.267 44.428 157.044 43.4067 156.581 42.7206C155.991 41.8588 154.938 41.2684 153.789 41.2684C152.608 41.2684 151.587 41.8588 150.964 42.5929C150.47 43.2153 150.039 44.1726 150.039 45.3216H157.267ZM176.478 39.0984V54.9116H172.874V41.7792H168.787C168.693 43.9174 168.629 44.779 168.565 46.247C168.469 47.8905 168.357 51.3532 166.954 53.2521C166.171 54.2732 165.213 54.6723 164.528 54.8636C164.128 54.9913 163.698 55.0392 163.251 55.0392C162.947 55.0392 162.629 55.0073 162.325 54.9116V52.183H162.629C163.091 52.151 163.714 51.9116 164.112 51.5926C165.357 50.6032 165.469 48.3692 165.597 46.598C165.757 44.2684 165.789 42.8801 165.803 40.7739L165.835 39.0984H176.478ZM183.867 44.7312H187.84C188.861 44.7312 190.84 44.8588 192.149 46.1513C193.33 47.3001 193.442 48.9118 193.442 49.7736C193.442 52.0393 192.515 53.1883 191.797 53.7787C191.542 53.9702 190.378 54.8956 188.144 54.8956H180.277V39.0984H183.867V44.7312ZM183.867 52.2947H186.691C187.378 52.2947 188.112 52.2627 188.734 51.7361C189.101 51.3851 189.547 50.8107 189.547 49.8054C189.547 48.9438 189.293 48.2576 188.59 47.7948C187.968 47.396 187.186 47.3321 186.707 47.3321H183.883V52.2947H183.867ZM198.675 39.0984L201.595 44.0131L204.627 39.0984H207.914L203.286 46.247L208.776 54.8956H204.563L200.973 48.9438L197.19 54.8956H193.904L199.298 46.6939L194.462 39.0984H198.675ZM211.552 40.71C212.637 39.6888 214.25 38.7952 216.658 38.7952C219.083 38.7952 220.696 39.6888 221.781 40.71C223.392 42.2259 224.222 44.5875 224.222 46.9971C224.222 49.4065 223.376 51.7681 221.781 53.284C220.696 54.3052 219.083 55.2147 216.658 55.2147C214.25 55.2147 212.637 54.3052 211.552 53.284C209.941 51.7681 209.11 49.4065 209.11 46.9971C209.11 44.5716 209.941 42.2259 211.552 40.71ZM214.186 51.4649C214.52 51.8638 215.302 52.6137 216.658 52.6137C218.03 52.6137 218.797 51.8798 219.147 51.4649C219.387 51.1937 220.328 49.9491 220.328 46.9971C220.328 44.0451 219.403 42.8163 219.147 42.5291C218.813 42.1302 218.03 41.3803 216.658 41.3803C215.302 41.3803 214.52 42.1142 214.186 42.5291C213.93 42.8163 213.005 44.0451 213.005 46.9971C213.005 49.9331 213.946 51.1777 214.186 51.4649ZM226.152 43.3748C226.616 41.46 227.827 40.4068 228.69 39.8803C229.216 39.5452 230.669 38.7952 233.157 38.7952C234.706 38.7952 236.285 39.0665 237.466 39.7208C239.205 40.6782 239.635 42.0664 239.635 43.0716C239.635 44.1568 239.109 46.2312 236.413 46.5342V46.598C237.338 46.7257 238.36 47.1246 238.982 47.7788C239.541 48.3692 239.971 49.3587 239.971 50.4118C239.971 51.9915 239.045 53.3798 237.864 54.1616C236.445 55.0872 234.482 55.2147 233.03 55.2147C231.562 55.2147 229.344 55.0552 227.781 53.8265C226.918 53.1404 226.104 51.9596 225.866 50.4756L229.12 49.9171C229.248 50.4118 229.52 51.1617 229.886 51.5926C230.701 52.534 231.96 52.6137 232.774 52.6137C233.589 52.6137 234.45 52.518 235.136 52.0553C235.758 51.6244 236.062 51.034 236.062 50.2521C236.062 49.598 235.934 49.0713 235.376 48.6086C234.658 48.0182 233.701 47.9225 232.806 47.9225H231.163V45.4971H232.806C233.429 45.4971 234.322 45.3694 234.818 45.13C235.472 44.795 235.838 44.2364 235.838 43.327C235.838 42.8323 235.646 42.3536 235.184 41.9865C234.466 41.3961 233.445 41.3643 232.918 41.3643C232.2 41.3643 231.147 41.46 230.285 42.194C229.918 42.4972 229.424 43.0876 229.264 44.0131L226.152 43.3748ZM258.37 37.3592H248.109V42.0664H252.672C254.317 42.0664 255.896 42.194 257.507 43.311C259.088 44.3961 260.077 46.0076 260.077 48.3374C260.077 50.5075 259.262 52.1192 258.242 53.1403C256.694 54.6881 254.923 54.9116 253.072 54.9116H243.147V33.6412H258.37V37.3592ZM248.109 51.1777H252.114C252.864 51.1777 253.55 51.1457 254.253 50.4276C254.939 49.7416 255.034 48.9756 255.034 48.3852C255.034 47.715 254.843 47.0289 254.253 46.4385C253.55 45.7364 252.64 45.6566 251.987 45.6566H248.109V51.1777ZM262.63 43.4865C263.125 41.3483 264.512 40.2632 265.358 39.7686C266.587 39.0505 268.23 38.7793 270.29 38.7793C272.89 38.7793 275.523 39.1144 276.704 41.5716C277.326 42.8483 277.262 44.2046 277.262 45.3854V51.4968C277.262 52.7734 277.437 53.9542 277.725 54.9116H273.226C273.098 54.2892 273.002 53.4595 272.986 52.4064C272.395 53.4595 270.958 55.2307 267.688 55.2307C266.235 55.2307 264.736 54.8636 263.715 54.018C262.725 53.2041 262.102 51.9116 262.102 50.4915C262.102 48.9118 262.789 47.0129 265.486 45.896C267.226 45.1779 270.05 44.9385 271.31 44.8747L272.794 44.811V44.4758C272.794 44.0449 272.762 43.1195 272.331 42.6089C271.741 41.9227 270.56 41.8908 270.098 41.8908C269.459 41.8908 268.677 41.9547 268.022 42.3536C267.624 42.5929 267.098 43.1035 266.906 43.9652L262.63 43.4865ZM271.406 47.4278C269.858 47.5555 268.31 47.715 267.432 48.7841C267.194 49.0873 266.938 49.566 266.938 50.2043C266.938 50.8905 267.274 51.3532 267.624 51.5926C268.054 51.9276 268.709 52.0872 269.331 52.0872C270.258 52.0872 271.342 51.6883 271.965 50.9384C272.061 50.8425 272.794 49.9171 272.794 48.114V47.2843L271.406 47.4278ZM285.464 39.0984V45.0184H290.458V39.0984H295.07V54.8956H290.458V48.2576H285.464V54.8956H280.853V39.0984H285.464ZM303.288 39.0984V45.1779H304.533C305.872 45.1779 306.43 44.5236 306.766 43.8057C307.421 42.4174 307.389 41.3323 307.979 40.2473C308.442 39.3856 309.064 39.1622 309.462 39.0984H313.277C312.782 39.6249 312.35 40.2473 312.064 40.8057C311.57 41.827 311.107 43.5025 310.819 44.2206C310.453 45.2099 309.83 46.1992 308.25 46.3268V46.3907C309.096 46.5184 309.958 46.9491 310.611 47.9065C311.011 48.4969 311.282 49.2628 311.73 50.4756C312.16 51.7203 312.35 52.151 312.75 53.1084C313.069 53.8265 313.245 54.2574 313.771 54.9116H309.43C308.746 54.6881 308.282 54.2254 307.723 52.6137C307.293 51.3851 307.229 50.9384 306.942 50.2521L306.718 49.6937C306.256 48.5129 305.634 48.2736 304.675 48.2736H303.288V54.9116H298.677V39.0984H303.288Z" fill="#19502E"/>
<path d="M38.9157 78.4002C20.1026 78.4002 4.80005 63.1136 4.80005 44.3005C4.80005 33.4978 9.76261 23.5566 18.4112 17.0464L18.7623 16.759V1.60016H38.3412V10.2009H38.9157C57.7127 10.2009 73.0152 25.5034 73.0152 44.3165C73.0152 63.1136 57.7127 78.4002 38.9157 78.4002Z" fill="#19502E"/>
<path d="M29.0382 44.843L36.139 37.8698V33.1306L29.0382 40.0719V44.843ZM29.0382 27.1788L36.139 20.1897V15.7218L29.0382 22.663V27.1788ZM29.0382 33.019L36.139 26.0458V21.578L29.0382 28.5191V33.019ZM27.0118 15.7697L26.0703 14.8602V3.80212H24.9854V13.807L24.0598 12.8815V3.80212H22.9748V11.8443L22.0334 10.9188V3.80212H20.9642V14.3496L28.0809 21.3226V3.80212H27.0118V15.7697ZM29.0382 38.8591L36.139 31.886V27.4182L29.0382 34.3593V38.8591ZM20.9642 37.8698L28.0809 44.843V40.0719L20.9642 33.1306V37.8698ZM35.0698 10.9188L34.1284 11.8443V3.80212H33.0593V12.8975L32.1178 13.807V3.80212H31.0487V14.8442L30.1073 15.7697V3.80212H29.0382V21.3226L36.139 14.3496V3.80212H35.0698V10.9188ZM20.9642 20.1897L28.0809 27.1788V22.663L20.9642 15.7218V20.1897ZM20.9642 26.0458L28.0809 33.019V28.5191L20.9642 21.578V26.0458ZM20.9642 31.886L28.0809 38.8591V34.3593L20.9642 27.4182V31.886ZM63.2975 35.5721H46.0164C46.3834 34.9977 46.5908 34.3274 46.5908 33.6094C46.5908 31.551 44.9153 29.8914 42.8569 29.8914C40.7985 29.8914 39.139 31.567 39.139 33.6094C39.139 34.4233 39.3943 35.1572 39.841 35.7636C39.522 35.971 39.2985 36.338 39.2985 36.7689C39.2985 37.1838 39.522 37.5508 39.841 37.7582C39.4103 38.3646 39.139 39.1145 39.139 39.9124C39.139 41.9708 40.7985 43.6303 42.8569 43.6303C44.9153 43.6303 46.5908 41.9708 46.5908 39.9124C46.5908 39.1943 46.3834 38.5081 46.0164 37.9497H58.8775V38.7316H57.601V39.8326H58.8775V40.9655H57.601V43.0558H58.8775V42.1143H60.7604V43.0558H62.021V40.9655H60.7604V39.8326H62.021V38.7316H60.7604V37.9497H63.2975C63.7922 37.9497 64.1911 37.5348 64.1911 37.0401V36.4817C64.1911 35.987 63.7762 35.5721 63.2975 35.5721ZM44.7878 39.9124C44.7878 40.9655 43.926 41.8271 42.8569 41.8271C41.8038 41.8271 40.9422 40.9655 40.9422 39.9124C40.9422 39.5294 41.0538 39.1623 41.2612 38.8591L41.7878 37.9497C41.4527 37.6625 41.2452 37.2316 41.2452 36.7529C41.2452 36.2742 41.4527 35.8434 41.7878 35.5561L41.2612 34.6466C41.0538 34.3434 40.9422 33.9924 40.9422 33.5935C40.9422 32.5402 41.8038 31.6786 42.8569 31.6786C43.91 31.6786 44.7878 32.5402 44.7878 33.5935C44.7878 34.3753 43.8782 36.2423 43.8782 36.2423V37.2476C43.8782 37.2636 44.7878 39.1305 44.7878 39.9124Z" fill="#FFCB05"/>
<path d="M14.5016 33.306V37.9496C14.5016 42.3856 16.4323 45.2417 17.5493 46.3428C18.2035 46.9811 24.8096 53.4915 24.9055 53.5711C26.9639 55.5817 27.3149 56.236 27.7776 57.3849V52.2468C27.7776 47.6672 25.4639 45.896 24.2671 44.7312C21.4747 42.0185 19.6237 40.2313 18.1079 38.7313C15.2675 35.8752 14.5016 33.306 14.5016 33.306ZM24.2672 56.2041C21.4907 53.4755 19.6237 51.7043 18.1239 50.2043C15.2676 47.3481 14.5176 45.4172 14.5176 45.4172V49.4223C14.5176 53.8584 16.5282 56.6828 17.5495 57.8476C18.2035 58.4859 24.8256 64.9643 24.9055 65.0441C26.9639 67.0547 27.3149 68.0121 27.7776 69.1451V63.7196C27.7776 59.1401 25.448 57.3689 24.2672 56.2041Z" fill="white"/>
<path d="M38.9155 12.3867C38.405 12.3867 37.8942 12.4027 37.3837 12.4186V14.5888C37.8942 14.5568 38.389 14.5568 38.9155 14.5568C55.335 14.5568 68.643 27.8648 68.643 44.3003C68.643 60.7198 55.335 74.0278 38.9155 74.0278C22.496 74.0278 9.17208 60.7198 9.17208 44.3003C9.17208 35.1889 13.273 27.035 19.7355 21.5779V18.8014C11.9964 24.6256 7.00195 33.8804 7.00195 44.3003C7.00195 61.9166 21.2832 76.1979 38.9155 76.1979C56.5318 76.1979 70.8131 61.9166 70.8131 44.3003C70.8131 26.684 56.5318 12.3867 38.9155 12.3867Z" fill="white"/>
<path d="M61.4785 60.9591C61.9731 60.2888 62.436 59.5867 62.8827 58.8687V54.5923H61.4785V60.9591ZM65.5635 53.0285C65.7708 52.4063 65.9464 51.784 66.1059 51.1616H61.4785V52.2946H62.1806C63.4092 52.2626 64.7976 52.2467 65.5635 53.0285Z" fill="white"/>
<path d="M34.7509 51.0022H33.4902V63.7196H34.7509V51.0022Z" fill="white"/>
<path d="M30.6022 48.5607H34.7508C35.82 48.5607 36.57 48.784 37.0008 49.1989C37.4316 49.6138 37.6392 50.3638 37.6392 51.433V63.3206C37.6392 64.3898 37.4316 65.1398 37.0008 65.5547C36.3465 66.2088 35.1339 66.2088 34.1286 66.2088C33.9052 66.193 33.6819 66.193 33.4904 66.193V71.8256C33.9052 71.9054 34.3201 71.9853 34.7508 72.0491V67.4216C36.6657 67.4216 37.9104 66.7674 38.5008 65.4589V72.3522H38.9156C39.171 72.3522 39.4422 72.3522 39.6976 72.3363V51.6403C39.6976 50.5394 39.9209 49.7734 40.3358 49.3426C40.7507 48.9117 41.5006 48.6883 42.5537 48.6883C43.6228 48.6883 45.2027 48.5288 46.0164 49.3426C46.4313 49.7734 46.6227 50.5552 46.6227 51.6403V57.7358H43.7825V51.2254H42.5537V72.113C42.9686 72.065 43.3676 72.0011 43.7825 71.9214V58.9645H46.6227V71.2672C47.2131 71.1077 47.7876 70.9162 48.362 70.7086V59.4432C48.362 58.1667 48.6652 57.2093 49.9577 56.7784L48.5216 48.9437H51.3939L51.8726 57.4965H52.2236L52.7023 48.9437H55.734L54.1065 56.7784C55.4628 57.2571 55.734 58.0869 55.734 59.4432V66.7195C56.5798 66.0813 57.3775 65.411 58.1435 64.677V48.8639H66.5687C66.6326 48.481 66.6804 48.1139 66.7283 47.7151H47.0376L47.3089 49.135C46.6865 47.9862 45.5057 47.4118 43.7665 47.4118H42.5379C40.4475 47.4118 39.1868 48.2416 38.6923 49.9011C38.2454 48.1618 36.9211 47.3002 34.735 47.3002H29.3416V70.6448C29.7564 70.7885 30.1713 70.932 30.5862 71.0597V48.5607H30.6022ZM56.7553 57.5443L55.399 56.2519L56.7553 49.2309V57.5443Z" fill="white"/>
<path d="M51.4098 69.4163C51.8407 69.1929 52.2714 68.9696 52.7023 68.7302V59.1083H51.4098V69.4163Z" fill="white"/>
</svg>
