<svg width="19" height="20" viewBox="0 0 19 20" fill="none" xmlns="http://www.w3.org/2000/svg">
<path d="M7.12496 14.7502V13.7502C6.57267 13.7502 6.12496 14.1979 6.12496 14.7502H7.12496ZM11.875 14.7502H12.875C12.875 14.1979 12.4272 13.7502 11.875 13.7502V14.7502ZM6.33329 4.25016C5.78101 4.25016 5.33329 4.69788 5.33329 5.25016C5.33329 5.80245 5.78101 6.25016 6.33329 6.25016V4.25016ZM6.34121 6.25016C6.89349 6.25016 7.34121 5.80245 7.34121 5.25016C7.34121 4.69788 6.89349 4.25016 6.34121 4.25016V6.25016ZM12.6666 4.25016C12.1143 4.25016 11.6666 4.69788 11.6666 5.25016C11.6666 5.80245 12.1143 6.25016 12.6666 6.25016V4.25016ZM12.6745 6.25016C13.2268 6.25016 13.6745 5.80245 13.6745 5.25016C13.6745 4.69788 13.2268 4.25016 12.6745 4.25016V6.25016ZM9.49996 4.25016C8.94767 4.25016 8.49996 4.69788 8.49996 5.25016C8.49996 5.80245 8.94767 6.25016 9.49996 6.25016V4.25016ZM9.50788 6.25016C10.0602 6.25016 10.5079 5.80245 10.5079 5.25016C10.5079 4.69788 10.0602 4.25016 9.50788 4.25016V6.25016ZM9.49996 7.41683C8.94767 7.41683 8.49996 7.86454 8.49996 8.41683C8.49996 8.96911 8.94767 9.41683 9.49996 9.41683V7.41683ZM9.50788 9.41683C10.0602 9.41683 10.5079 8.96911 10.5079 8.41683C10.5079 7.86454 10.0602 7.41683 9.50788 7.41683V9.41683ZM9.49996 10.5835C8.94767 10.5835 8.49996 11.0312 8.49996 11.5835C8.49996 12.1358 8.94767 12.5835 9.49996 12.5835V10.5835ZM9.50788 12.5835C10.0602 12.5835 10.5079 12.1358 10.5079 11.5835C10.5079 11.0312 10.0602 10.5835 9.50788 10.5835V12.5835ZM12.6666 7.41683C12.1143 7.41683 11.6666 7.86454 11.6666 8.41683C11.6666 8.96911 12.1143 9.41683 12.6666 9.41683V7.41683ZM12.6745 9.41683C13.2268 9.41683 13.6745 8.96911 13.6745 8.41683C13.6745 7.86454 13.2268 7.41683 12.6745 7.41683V9.41683ZM12.6666 10.5835C12.1143 10.5835 11.6666 11.0312 11.6666 11.5835C11.6666 12.1358 12.1143 12.5835 12.6666 12.5835V10.5835ZM12.6745 12.5835C13.2268 12.5835 13.6745 12.1358 13.6745 11.5835C13.6745 11.0312 13.2268 10.5835 12.6745 10.5835V12.5835ZM6.33329 7.41683C5.78101 7.41683 5.33329 7.86454 5.33329 8.41683C5.33329 8.96911 5.78101 9.41683 6.33329 9.41683V7.41683ZM6.34121 9.41683C6.89349 9.41683 7.34121 8.96911 7.34121 8.41683C7.34121 7.86454 6.89349 7.41683 6.34121 7.41683V9.41683ZM6.33329 10.5835C5.78101 10.5835 5.33329 11.0312 5.33329 11.5835C5.33329 12.1358 5.78101 12.5835 6.33329 12.5835V10.5835ZM6.34121 12.5835C6.89349 12.5835 7.34121 12.1358 7.34121 11.5835C7.34121 11.0312 6.89349 10.5835 6.34121 10.5835V12.5835ZM4.74996 3.0835H14.25V1.0835H4.74996V3.0835ZM14.25 3.0835C14.5721 3.0835 14.8333 3.34466 14.8333 3.66683H16.8333C16.8333 2.24009 15.6767 1.0835 14.25 1.0835V3.0835ZM14.8333 3.66683V16.3335H16.8333V3.66683H14.8333ZM14.8333 16.3335C14.8333 16.6557 14.5721 16.9168 14.25 16.9168V18.9168C15.6767 18.9168 16.8333 17.7602 16.8333 16.3335H14.8333ZM14.25 16.9168H4.74996V18.9168H14.25V16.9168ZM4.74996 16.9168C4.42779 16.9168 4.16663 16.6557 4.16663 16.3335H2.16663C2.16663 17.7602 3.32322 18.9168 4.74996 18.9168V16.9168ZM4.16663 16.3335V3.66683H2.16663V16.3335H4.16663ZM4.16663 3.66683C4.16663 3.34466 4.42779 3.0835 4.74996 3.0835V1.0835C3.32322 1.0835 2.16663 2.24009 2.16663 3.66683H4.16663ZM8.12496 17.9168V14.7502H6.12496V17.9168H8.12496ZM7.12496 15.7502H11.875V13.7502H7.12496V15.7502ZM10.875 14.7502V17.9168H12.875V14.7502H10.875ZM6.33329 6.25016H6.34121V4.25016H6.33329V6.25016ZM12.6666 6.25016H12.6745V4.25016H12.6666V6.25016ZM9.49996 6.25016H9.50788V4.25016H9.49996V6.25016ZM9.49996 9.41683H9.50788V7.41683H9.49996V9.41683ZM9.49996 12.5835H9.50788V10.5835H9.49996V12.5835ZM12.6666 9.41683H12.6745V7.41683H12.6666V9.41683ZM12.6666 12.5835H12.6745V10.5835H12.6666V12.5835ZM6.33329 9.41683H6.34121V7.41683H6.33329V9.41683ZM6.33329 12.5835H6.34121V10.5835H6.33329V12.5835Z" fill="white"/>
</svg>
