<svg width="16" height="20" viewBox="0 0 16 20" fill="none" xmlns="http://www.w3.org/2000/svg">
<path d="M5.49992 18.3334V15.0001H10.4999V18.3334M4.66659 5.00008H4.67492M11.3333 5.00008H11.3416M7.99992 5.00008H8.00825M7.99992 8.33341H8.00825M7.99992 11.6667H8.00825M11.3333 8.33341H11.3416M11.3333 11.6667H11.3416M4.66659 8.33341H4.67492M4.66659 11.6667H4.67492M2.99992 1.66675H12.9999C13.9204 1.66675 14.6666 2.41294 14.6666 3.33341V16.6667C14.6666 17.5872 13.9204 18.3334 12.9999 18.3334H2.99992C2.07944 18.3334 1.33325 17.5872 1.33325 16.6667V3.33341C1.33325 2.41294 2.07944 1.66675 2.99992 1.66675Z" stroke="#007FFF" stroke-width="1.5" stroke-linecap="round" stroke-linejoin="round"/>
</svg>
